<svg width="0" height="0" class="hidden">
  <symbol fill="none" xmlns="http://www.w3.org/2000/svg" viewBox="0 0 24 24" id="ph-smiley-sad">
    <g id="ph-smiley-sad">
      <path id="Shape" d="M12.0001 1.99902C17.5238 1.99902 22.0016 6.47687 22.0016 12.0006C22.0016 17.5243 17.5238 22.0021 12.0001 22.0021C6.47638 22.0021 1.99854 17.5243 1.99854 12.0006C1.99854 6.47687 6.47638 1.99902 12.0001 1.99902ZM12.0001 13.498C10.3652 13.498 8.83305 14.1559 7.71184 15.3008C7.42203 15.5968 7.42701 16.0716 7.72296 16.3614C8.01891 16.6512 8.49376 16.6463 8.78356 16.3503C9.62544 15.4906 10.7727 14.998 12.0001 14.998C13.2248 14.998 14.3697 15.4884 15.2112 16.3448C15.5015 16.6403 15.9764 16.6444 16.2718 16.3541C16.5673 16.0638 16.5714 15.5889 16.2811 15.2935C15.1605 14.153 13.6313 13.498 12.0001 13.498ZM9.00053 8.75121C8.31057 8.75121 7.75124 9.31054 7.75124 10.0005C7.75124 10.6905 8.31057 11.2498 9.00053 11.2498C9.6905 11.2498 10.2498 10.6905 10.2498 10.0005C10.2498 9.31054 9.6905 8.75121 9.00053 8.75121ZM15.0005 8.75121C14.3106 8.75121 13.7512 9.31054 13.7512 10.0005C13.7512 10.6905 14.3106 11.2498 15.0005 11.2498C15.6905 11.2498 16.2498 10.6905 16.2498 10.0005C16.2498 9.31054 15.6905 8.75121 15.0005 8.75121Z" fill="currentColor"></path>
    </g>
  </symbol>
  <symbol fill="none" xmlns="http://www.w3.org/2000/svg" viewBox="0 0 24 24" id="ph-smiley-meh">
    <g id="ph-smiley-meh">
      <path id="Shape" d="M12 2C6.47715 2 2 6.47715 2 12C2 17.5228 6.47715 22 12 22C17.5228 22 22 17.5228 22 12C22 6.47715 17.5228 2 12 2ZM10.2498 10.0004C10.2498 10.6904 9.69047 11.2497 9.00051 11.2497C8.31055 11.2497 7.75122 10.6904 7.75122 10.0004C7.75122 9.31049 8.31055 8.75116 9.00051 8.75116C9.69047 8.75116 10.2498 9.31049 10.2498 10.0004ZM16.2498 10.0004C16.2498 10.6904 15.6905 11.2497 15.0005 11.2497C14.3105 11.2497 13.7512 10.6904 13.7512 10.0004C13.7512 9.31049 14.3105 8.75116 15.0005 8.75116C15.6905 8.75116 16.2498 9.31049 16.2498 10.0004ZM7.5 15.75C7.5 15.3358 7.83579 15 8.25 15H15.75C16.1642 15 16.5 15.3358 16.5 15.75C16.5 16.1642 16.1642 16.5 15.75 16.5H8.25C7.83579 16.5 7.5 16.1642 7.5 15.75Z" fill="currentColor"></path>
    </g>
  </symbol>
  <symbol fill="none" xmlns="http://www.w3.org/2000/svg" viewBox="0 0 24 24" id="ph-smiley">
    <g id="ph-smiley">
      <path id="Shape" d="M12.0001 1.99902C17.5238 1.99902 22.0016 6.47687 22.0016 12.0006C22.0016 17.5243 17.5238 22.0021 12.0001 22.0021C6.47638 22.0021 1.99854 17.5243 1.99854 12.0006C1.99854 6.47687 6.47638 1.99902 12.0001 1.99902ZM8.46183 14.7839C8.20548 14.4585 7.73391 14.4026 7.40855 14.6589C7.08319 14.9153 7.02725 15.3869 7.2836 15.7122C8.4142 17.1472 10.1374 18.0021 12.0001 18.0021C13.8602 18.0021 15.5814 17.1495 16.7122 15.7178C16.9689 15.3927 16.9135 14.9211 16.5884 14.6644C16.2634 14.4076 15.7918 14.463 15.535 14.7881C14.6858 15.8633 13.3963 16.5021 12.0001 16.5021C10.602 16.5021 9.31096 15.8616 8.46183 14.7839ZM9.00053 8.75121C8.31057 8.75121 7.75124 9.31054 7.75124 10.0005C7.75124 10.6905 8.31057 11.2498 9.00053 11.2498C9.6905 11.2498 10.2498 10.6905 10.2498 10.0005C10.2498 9.31054 9.6905 8.75121 9.00053 8.75121ZM15.0005 8.75121C14.3106 8.75121 13.7512 9.31054 13.7512 10.0005C13.7512 10.6905 14.3106 11.2498 15.0005 11.2498C15.6905 11.2498 16.2498 10.6905 16.2498 10.0005C16.2498 9.31054 15.6905 8.75121 15.0005 8.75121Z" fill="currentColor"></path>
    </g>
  </symbol>
</svg>